<?xml version="1.0" encoding="UTF-8" standalone="no"?><!-- Generator: Gravit.io --><svg xmlns="http://www.w3.org/2000/svg" xmlns:xlink="http://www.w3.org/1999/xlink" style="isolation:isolate" viewBox="0 0 468.89 500" width="468.89pt" height="500pt"><defs><clipPath id="_clipPath_Cyp80Lu1qrP7PT6mBhwnSNYsjcAwvNKI"><rect width="468.89" height="500"/></clipPath></defs><g clip-path="url(#_clipPath_Cyp80Lu1qrP7PT6mBhwnSNYsjcAwvNKI)"><g><g><path d=" M 450 384.63 L 199.93 240.23 C 196.42 238.23 193.58 232.77 193.58 228.1 L 193.58 34.63 C 193.58 29.95 196.42 27.8 199.93 29.83 L 450 174.23 C 453.51 176.23 456.35 181.69 456.35 186.36 L 456.35 379.83 C 456.39 384.51 453.55 386.66 450 384.63 Z " fill="rgb(177,180,196)"/><path d=" M 451.33 386.63 L 454.1 385.03 L 452.9 376.82 L 451.33 386.63 L 451.33 386.63 Z " fill="rgb(177,180,196)"/><path d=" M 193.13 31 L 195.86 29.42 L 199.78 31.66 C 199.78 31.66 195.6 32.29 195.5 32.27 C 195.4 32.25 193.13 31 193.13 31 Z " fill="rgb(177,180,196)"/><path d=" M 447.75 386 L 197.64 241.56 C 194.13 239.56 191.28 234.1 191.28 229.42 L 191.28 36 C 191.28 31.32 194.13 29.17 197.64 31.2 L 447.75 175.6 C 451.26 177.6 454.1 183.06 454.1 187.74 L 454.1 381.16 C 454.1 385.83 451.26 388 447.75 386 Z " fill="rgb(228,231,242)"/><path d=" M 447.31 386.21 L 197.2 241.81 C 193.69 239.81 190.84 234.35 190.84 229.67 L 190.84 36.2 C 190.84 31.53 193.69 29.38 197.2 31.4 L 447.31 175.8 C 450.81 177.8 453.66 183.26 453.66 187.94 L 453.66 381.41 C 453.66 386.09 450.81 388.24 447.31 386.21 Z " fill="rgb(214,216,229)"/><path d=" M 450.22 374.44 L 194 226.53 L 194.15 37 C 194.15 35.06 195.51 34.27 197.15 35.24 L 447.26 179.64 C 449.041 180.82 450.155 182.776 450.26 184.91 L 450.22 374.44 Z " fill="rgb(255,255,255)"/><g opacity="0.5"><linearGradient id="_lgradient_0" x1="0.4966899566727817" y1="0.7499637315934191" x2="0.49668995667278176" y2="0.18357240804408526" gradientTransform="matrix(256.19,0,0,339.625,194,34.825)" gradientUnits="userSpaceOnUse"><stop offset="21%" stop-opacity="0" style="stop-color:rgb(255,255,255)"/><stop offset="100%" stop-opacity="0.2" style="stop-color:rgb(255,255,255)"/></linearGradient><path d=" M 450.14 374.45 L 194 226.54 L 194.08 37 C 194.08 35.06 195.44 34.27 197.08 35.24 L 447.19 179.64 C 448.97 180.821 450.083 182.777 450.19 184.91 L 450.14 374.45 Z " fill="url(#_lgradient_0)"/></g><g opacity="0.4"><path d=" M 258.67 498.63 L 8.56 354.23 C 5.05 352.23 5.49 348.67 9.56 346.33 L 177.11 249.59 C 181.11 247.26 187.29 247 190.79 249.03 L 440.91 393.43 C 444.41 395.43 443.97 398.99 439.91 401.33 L 272.35 498.07 C 268.3 500.4 262.17 500.66 258.67 498.63 Z " fill="rgb(214,216,229)"/></g><path d=" M 264.13 495.35 L 14 351 C 10.49 349 10.93 345.44 15 343.1 L 182.55 246.37 C 186.55 244.03 192.73 243.77 196.24 245.8 L 446.35 390.2 C 449.86 392.2 449.42 395.76 445.35 398.1 L 277.82 494.79 C 273.77 497.12 267.64 497.38 264.13 495.35 Z " fill="rgb(177,180,196)"/><path d=" M 11.65 347.69 L 11.65 342.97 L 16.95 345.19 L 11.65 347.69 L 11.65 347.69 Z " fill="rgb(177,180,196)"/><path d=" M 448.72 393.68 L 448.72 389.07 L 444.8 390.42 L 447.4 394.24 L 448.72 393.68 L 448.72 393.68 Z " fill="rgb(177,180,196)"/><path d=" M 264.13 491.38 L 14 347 C 10.49 345 10.93 341.44 15 339.1 L 182.55 242.36 C 186.55 240.02 192.73 239.77 196.24 241.8 L 446.35 386.2 C 449.86 388.2 449.42 391.76 445.35 394.1 L 277.82 490.81 C 273.77 493.15 267.64 493.41 264.13 491.38 Z " fill="rgb(228,231,242)"/><path d=" M 264.13 490.77 L 14 346.37 C 10.49 344.37 10.93 340.8 15 338.47 L 182.55 241.73 C 186.55 239.39 192.73 239.14 196.24 241.16 L 446.35 385.57 C 449.86 387.57 449.42 391.13 445.35 393.47 L 277.82 490.2 C 273.77 492.54 267.64 492.79 264.13 490.77 Z " fill="rgb(214,216,229)"/><path d=" M 177.91 274.36 L 166.27 267.64 C 165.27 267.09 165.44 266.13 166.53 265.5 L 177.65 259.08 C 178.79 258.446 180.163 258.39 181.35 258.93 L 193 265.65 C 193.95 266.2 193.83 267.16 192.73 267.79 L 181.62 274.21 C 180.477 274.844 179.101 274.9 177.91 274.36 L 177.91 274.36 Z " fill="rgb(43,48,63)"/><path d=" M 194.4 283.88 L 182.75 277.15 C 181.8 276.61 181.92 275.65 183.02 275.01 L 194.13 268.6 C 195.273 267.966 196.649 267.91 197.84 268.45 L 209.48 275.17 C 210.48 275.72 210.31 276.68 209.22 277.31 L 198.1 283.72 C 196.963 284.362 195.588 284.422 194.4 283.88 L 194.4 283.88 Z " fill="rgb(43,48,63)"/><path d=" M 211.07 293.51 L 199.43 286.78 C 198.43 286.23 198.6 285.27 199.69 284.64 L 210.81 278.23 C 211.947 277.588 213.322 277.528 214.51 278.07 L 226.16 284.8 C 227.16 285.34 226.99 286.3 225.89 286.94 L 214.78 293.35 C 213.637 293.981 212.263 294.041 211.07 293.51 L 211.07 293.51 Z " fill="rgb(43,48,63)"/><path d=" M 227.37 302.91 L 215.72 296.19 C 214.77 295.64 214.89 294.68 215.99 294.05 L 227.1 287.63 C 228.243 286.996 229.619 286.94 230.81 287.48 L 242.46 294.2 C 243.41 294.75 243.29 295.71 242.19 296.34 L 231.08 302.76 C 229.937 303.394 228.561 303.45 227.37 302.91 Z " fill="rgb(43,48,63)"/><path d=" M 243.86 312.43 L 232.21 305.71 C 231.21 305.16 231.38 304.2 232.48 303.57 L 243.59 297.15 C 244.733 296.516 246.109 296.46 247.3 297 L 258.94 303.72 C 259.89 304.27 259.77 305.23 258.67 305.86 L 247.56 312.28 C 246.42 312.914 245.047 312.97 243.86 312.43 Z " fill="rgb(43,48,63)"/><path d=" M 260.34 322 L 248.7 315.28 C 247.75 314.73 247.86 313.77 248.96 313.14 L 260.07 306.72 C 261.213 306.086 262.589 306.03 263.78 306.57 L 275.43 313.29 C 276.38 313.84 276.26 314.8 275.16 315.43 L 264.05 321.85 C 262.907 322.484 261.531 322.54 260.34 322 L 260.34 322 Z " fill="rgb(43,48,63)"/><path d=" M 276.83 331.47 L 265.18 324.75 C 264.23 324.2 264.35 323.24 265.45 322.61 L 276.56 316.19 C 277.703 315.556 279.079 315.5 280.27 316.04 L 291.91 322.76 C 292.86 323.31 292.74 324.27 291.65 324.9 L 280.53 331.31 C 279.393 331.952 278.018 332.012 276.83 331.47 Z " fill="rgb(43,48,63)"/><path d=" M 293.31 341 L 281.67 334.27 C 280.72 333.72 280.84 332.77 281.93 332.13 L 293.05 325.72 C 294.187 325.078 295.562 325.018 296.75 325.56 L 308.4 332.29 C 309.4 332.84 309.23 333.79 308.13 334.43 L 297 340.83 C 295.867 341.469 294.497 341.532 293.31 341 Z " fill="rgb(43,48,63)"/><path d=" M 309.8 350.5 L 298.15 343.78 C 297.2 343.23 297.32 342.27 298.42 341.64 L 309.53 335.23 C 310.67 334.588 312.049 334.528 313.24 335.07 L 324.88 341.8 C 325.83 342.34 325.71 343.3 324.62 343.94 L 313.51 350.35 C 312.367 350.984 310.991 351.04 309.8 350.5 L 309.8 350.5 Z " fill="rgb(43,48,63)"/><path d=" M 326.28 360 L 314.64 353.28 C 313.69 352.73 313.81 351.77 314.9 351.14 L 326 344.74 C 327.14 344.106 328.513 344.05 329.7 344.59 L 341.35 351.31 C 342.3 351.86 342.18 352.82 341.08 353.45 L 330 359.87 C 328.851 360.501 327.47 360.55 326.28 360 L 326.28 360 Z " fill="rgb(43,48,63)"/><path d=" M 342.77 369.54 L 331.12 362.82 C 330.17 362.27 330.29 361.31 331.39 360.68 L 342.5 354.26 C 343.643 353.626 345.019 353.57 346.21 354.11 L 357.86 360.83 C 358.81 361.38 358.69 362.34 357.59 362.97 L 346.48 369.39 C 345.337 370.024 343.961 370.08 342.77 369.54 Z " fill="rgb(43,48,63)"/><path d=" M 359.26 379.06 L 347.61 372.34 C 346.66 371.79 346.78 370.83 347.88 370.2 L 359 363.78 C 360.143 363.146 361.519 363.09 362.71 363.63 L 374.35 370.35 C 375.35 370.9 375.18 371.86 374.08 372.49 L 363 378.91 C 361.85 379.558 360.458 379.614 359.26 379.06 Z " fill="rgb(43,48,63)"/><path d=" M 375.74 388.58 L 364.1 381.85 C 363.1 381.3 363.26 380.35 364.36 379.71 L 375.47 373.3 C 376.612 372.662 377.988 372.603 379.18 373.14 L 390.83 379.87 C 391.78 380.42 391.66 381.37 390.56 382.01 L 379.45 388.42 C 378.31 389.062 376.931 389.122 375.74 388.58 L 375.74 388.58 Z " fill="rgb(43,48,63)"/><path d=" M 400.17 402.68 L 380.58 391.37 C 379.63 390.82 379.75 389.86 380.85 389.23 L 392 382.82 C 393.14 382.178 394.519 382.118 395.71 382.66 L 415.25 394 C 416.2 394.55 416.08 395.51 414.99 396.14 L 403.87 402.56 C 402.726 403.185 401.353 403.229 400.17 402.68 Z " fill="rgb(43,48,63)"/><path d=" M 186.39 297.7 L 174.74 291 C 173.74 290.45 173.91 289.49 175.01 288.86 L 186.12 282.44 C 187.263 281.806 188.639 281.75 189.83 282.29 L 201.47 289 C 202.42 289.55 202.3 290.51 201.21 291.14 L 190.09 297.56 C 188.949 298.191 187.576 298.243 186.39 297.7 L 186.39 297.7 Z " fill="rgb(43,48,63)"/><path d=" M 202.9 307.24 L 191.26 300.52 C 190.31 299.97 190.43 299.01 191.52 298.38 L 202.64 292 C 203.78 291.366 205.153 291.31 206.34 291.85 L 218 298.53 C 218.95 299.08 218.83 300.04 217.73 300.67 L 206.62 307.09 C 205.474 307.728 204.093 307.783 202.9 307.24 L 202.9 307.24 Z " fill="rgb(43,48,63)"/><path d=" M 219.42 316.77 L 207.77 310.05 C 206.77 309.5 206.94 308.54 208.04 307.91 L 219.15 301.49 C 220.293 300.856 221.669 300.8 222.86 301.34 L 234.5 308.06 C 235.45 308.61 235.33 309.57 234.24 310.2 L 223.12 316.62 C 221.98 317.254 220.607 317.31 219.42 316.77 Z " fill="rgb(43,48,63)"/><path d=" M 235.93 326.31 L 224.28 319.58 C 223.33 319.04 223.45 318.08 224.55 317.44 L 235.66 311 C 236.802 310.362 238.178 310.303 239.37 310.84 L 251 317.6 C 251.95 318.15 251.83 319.1 250.73 319.74 L 239.62 326.15 C 238.485 326.786 237.116 326.845 235.93 326.31 Z " fill="rgb(43,48,63)"/><path d=" M 252.31 335.77 L 240.67 329 C 239.72 328.45 239.84 327.5 240.93 326.86 L 252.05 320.45 C 253.187 319.808 254.562 319.748 255.75 320.29 L 267.4 327.02 C 268.4 327.56 268.23 328.52 267.13 329.16 L 256 335.61 C 254.864 336.241 253.497 336.3 252.31 335.77 Z " fill="rgb(43,48,63)"/><path d=" M 268.83 345.3 L 257.18 338.58 C 256.23 338.03 256.35 337.07 257.45 336.44 L 268.56 330 C 269.703 329.366 271.079 329.31 272.27 329.85 L 283.91 336.57 C 284.86 337.12 284.74 338.08 283.65 338.71 L 272.53 345.13 C 271.394 345.771 270.02 345.834 268.83 345.3 L 268.83 345.3 Z " fill="rgb(43,48,63)"/><path d=" M 285.34 354.83 L 273.69 348.11 C 272.74 347.56 272.86 346.6 273.96 345.97 L 285.07 339.56 C 286.21 338.918 287.589 338.858 288.78 339.4 L 300.43 346.13 C 301.38 346.67 301.26 347.63 300.16 348.27 L 289.05 354.68 C 287.907 355.314 286.531 355.37 285.34 354.83 L 285.34 354.83 Z " fill="rgb(43,48,63)"/><path d=" M 301.85 364.37 L 290.21 357.65 C 289.26 357.1 289.38 356.14 290.48 355.51 L 301.59 349.09 C 302.73 348.456 304.103 348.4 305.29 348.94 L 316.94 355.66 C 317.89 356.21 317.77 357.17 316.67 357.8 L 305.56 364.22 C 304.417 364.854 303.041 364.91 301.85 364.37 Z " fill="rgb(43,48,63)"/><path d=" M 318.37 373.9 L 306.72 367.18 C 305.72 366.63 305.89 365.67 306.99 365.04 L 318.1 358.62 C 319.243 357.986 320.619 357.93 321.81 358.47 L 333.45 365.19 C 334.4 365.74 334.29 366.7 333.19 367.33 L 322.08 373.75 C 320.937 374.384 319.561 374.44 318.37 373.9 Z " fill="rgb(43,48,63)"/><path d=" M 334.88 383.44 L 323.24 376.71 C 322.29 376.17 322.41 375.21 323.5 374.57 L 334.62 368.16 C 335.759 367.527 337.13 367.468 338.32 368 L 350 374.73 C 350.95 375.28 350.83 376.24 349.73 376.87 L 338.62 383.28 C 337.472 383.933 336.08 383.992 334.88 383.44 Z " fill="rgb(43,48,63)"/><path d=" M 351.4 393 L 339.75 386.28 C 338.8 385.73 338.92 384.77 340.02 384.14 L 351.13 377.72 C 352.273 377.086 353.649 377.03 354.84 377.57 L 366.48 384.29 C 367.43 384.84 367.31 385.8 366.22 386.43 L 355.1 392.85 C 353.96 393.484 352.587 393.54 351.4 393 Z " fill="rgb(43,48,63)"/><path d=" M 367.91 402.51 L 356.27 395.78 C 355.32 395.23 355.43 394.28 356.53 393.64 L 367.64 387.23 C 368.782 386.592 370.158 386.533 371.35 387.07 L 383 393.8 C 383.95 394.35 383.83 395.3 382.73 395.94 L 371.62 402.35 C 370.48 402.992 369.101 403.052 367.91 402.51 Z " fill="rgb(43,48,63)"/><path d=" M 169.87 288.17 L 150.29 276.86 C 149.34 276.31 149.46 275.36 150.55 274.72 L 161.67 268.31 C 162.807 267.668 164.182 267.608 165.37 268.15 L 185 279.46 C 185.95 280.01 185.83 280.97 184.73 281.6 L 173.58 288 C 172.44 288.641 171.064 288.704 169.87 288.17 L 169.87 288.17 Z " fill="rgb(43,48,63)"/><path d=" M 399.37 403.29 L 387.73 396.57 C 386.644 396.014 385.356 396.014 384.27 396.57 L 372.53 403.35 C 371.53 403.9 371.53 404.79 372.53 405.35 L 373.46 405.89 C 374.34 406.39 374.33 407.22 373.46 407.73 L 361 414.89 C 360 415.45 360 416.34 361 416.89 L 368.41 421.17 C 369.494 421.72 370.776 421.72 371.86 421.17 L 383.48 414.47 L 385.88 413.08 L 387.61 412.08 L 389.35 411.08 L 399.35 405.31 C 400.32 404.73 400.32 403.84 399.37 403.29 Z " fill="rgb(43,48,63)"/><path d=" M 114.06 311.3 L 102.42 304.58 C 101.42 304.03 101.59 303.07 102.68 302.44 L 113.8 296 C 114.94 295.366 116.313 295.31 117.5 295.85 L 129.15 302.57 C 130.1 303.12 129.98 304.08 128.88 304.71 L 117.77 311.13 C 116.63 311.771 115.254 311.834 114.06 311.3 Z " fill="rgb(43,48,63)"/><path d=" M 130.5 320.79 L 118.86 314.07 C 117.86 313.52 118.03 312.56 119.12 311.93 L 130.24 305.51 C 131.38 304.876 132.753 304.82 133.94 305.36 L 145.59 312.08 C 146.54 312.63 146.42 313.59 145.32 314.22 L 134.21 320.64 C 133.067 321.274 131.691 321.33 130.5 320.79 Z " fill="rgb(43,48,63)"/><path d=" M 146.94 330.28 L 135.3 323.56 C 134.3 323.01 134.46 322.05 135.56 321.42 L 146.67 315 C 147.813 314.366 149.189 314.31 150.38 314.85 L 162 321.57 C 162.95 322.12 162.83 323.08 161.73 323.71 L 150.62 330.13 C 149.485 330.754 148.122 330.81 146.94 330.28 Z " fill="rgb(43,48,63)"/><path d=" M 286.94 411.11 L 275.29 404.38 C 274.29 403.84 274.46 402.88 275.56 402.24 L 286.67 395.83 C 287.812 395.192 289.188 395.133 290.38 395.67 L 302 402.4 C 303 402.95 302.83 403.9 301.73 404.54 L 290.64 411 C 289.495 411.626 288.12 411.667 286.94 411.11 Z " fill="rgb(43,48,63)"/><path d=" M 303.37 420.6 L 291.73 413.88 C 290.73 413.33 290.9 412.37 291.99 411.74 L 303.11 405.32 C 304.25 404.686 305.623 404.63 306.81 405.17 L 318.46 411.89 C 319.46 412.44 319.29 413.4 318.19 414.03 L 307.08 420.45 C 305.937 421.084 304.561 421.14 303.37 420.6 Z " fill="rgb(43,48,63)"/><path d=" M 319.81 430.09 L 308.17 423.37 C 307.22 422.82 307.34 421.86 308.43 421.23 L 319.55 414.81 C 320.69 414.176 322.063 414.12 323.25 414.66 L 334.9 421.38 C 335.9 421.93 335.73 422.89 334.63 423.52 L 323.52 429.94 C 322.377 430.574 321.001 430.63 319.81 430.09 L 319.81 430.09 Z " fill="rgb(43,48,63)"/><path d=" M 336.25 439.58 L 324.61 432.86 C 323.66 432.31 323.78 431.35 324.87 430.72 L 336 424.3 C 337.14 423.666 338.513 423.61 339.7 424.15 L 351.35 430.87 C 352.35 431.42 352.18 432.38 351.08 433.01 L 340 439.43 C 338.846 440.078 337.452 440.134 336.25 439.58 Z " fill="rgb(43,48,63)"/><path d=" M 167.61 342.22 L 151.73 333.05 C 150.78 332.5 150.9 331.54 152 330.91 L 163.11 324.49 C 164.253 323.856 165.629 323.8 166.82 324.34 L 182.7 333.51 C 183.7 334.06 183.53 335.01 182.43 335.65 L 171.32 342.06 C 170.18 342.702 168.801 342.762 167.61 342.22 Z " fill="rgb(43,48,63)"/><path d=" M 270.5 401.62 L 254.62 392.45 C 253.62 391.9 253.79 390.94 254.88 390.31 L 266 383.89 C 267.14 383.256 268.513 383.2 269.7 383.74 L 285.58 392.91 C 286.53 393.46 286.41 394.41 285.32 395.05 L 274.2 401.46 C 273.063 402.102 271.688 402.162 270.5 401.62 L 270.5 401.62 Z " fill="rgb(43,48,63)"/><path d=" M 249.82 389.68 L 172.41 345 C 171.46 344.45 171.58 343.49 172.67 342.86 L 183.79 336.44 C 184.93 335.806 186.303 335.75 187.49 336.29 L 264.91 381 C 265.86 381.55 265.74 382.51 264.64 383.14 L 253.53 389.56 C 252.382 390.185 251.006 390.229 249.82 389.68 Z " fill="rgb(43,48,63)"/><path d=" M 174.89 309.52 L 163.25 302.8 C 162.3 302.25 162.42 301.29 163.52 300.66 L 174.63 294.24 C 175.77 293.606 177.143 293.55 178.33 294.09 L 190 300.81 C 191 301.36 190.83 302.32 189.73 302.95 L 178.62 309.37 C 177.471 310.011 176.086 310.067 174.89 309.52 Z " fill="rgb(43,48,63)"/><path d=" M 191.36 319 L 179.72 312.27 C 178.77 311.72 178.89 310.77 179.98 310.13 L 191.1 303.72 C 192.238 303.083 193.611 303.023 194.8 303.56 L 206.45 310.29 C 207.45 310.84 207.28 311.79 206.18 312.43 L 195.07 318.84 C 193.93 319.482 192.551 319.542 191.36 319 Z " fill="rgb(43,48,63)"/><path d=" M 207.83 328.53 L 196.18 321.81 C 195.18 321.26 195.35 320.3 196.45 319.67 L 207.56 313.25 C 208.703 312.616 210.079 312.56 211.27 313.1 L 222.91 319.82 C 223.91 320.37 223.75 321.33 222.65 321.96 L 211.54 328.38 C 210.397 329.014 209.021 329.07 207.83 328.53 Z " fill="rgb(43,48,63)"/><path d=" M 224.3 338 L 212.65 331.28 C 211.65 330.73 211.82 329.77 212.92 329.14 L 224 322.76 C 225.143 322.126 226.519 322.07 227.71 322.61 L 239.35 329.33 C 240.35 329.88 240.18 330.84 239.09 331.47 L 228 337.89 C 226.854 338.511 225.481 338.552 224.3 338 Z " fill="rgb(43,48,63)"/><path d=" M 240.76 347.55 L 229.12 340.83 C 228.12 340.28 228.29 339.32 229.38 338.69 L 240.5 332.27 C 241.64 331.636 243.013 331.58 244.2 332.12 L 255.85 338.84 C 256.85 339.39 256.68 340.35 255.58 340.98 L 244.47 347.4 C 243.327 348.034 241.951 348.09 240.76 347.55 Z " fill="rgb(43,48,63)"/><path d=" M 257.23 357.06 L 245.59 350.33 C 244.59 349.78 244.75 348.83 245.85 348.19 L 257 341.78 C 258.14 341.138 259.519 341.078 260.71 341.62 L 272.36 348.35 C 273.31 348.9 273.19 349.85 272.09 350.49 L 260.98 356.9 C 259.829 357.556 258.432 357.616 257.23 357.06 L 257.23 357.06 Z " fill="rgb(43,48,63)"/><path d=" M 273.7 366.56 L 262.05 359.84 C 261.1 359.29 261.22 358.33 262.32 357.7 L 273.43 351.28 C 274.573 350.646 275.949 350.59 277.14 351.13 L 288.78 357.85 C 289.78 358.4 289.61 359.36 288.52 359.99 L 277.4 366.41 C 276.26 367.044 274.887 367.1 273.7 366.56 L 273.7 366.56 Z " fill="rgb(43,48,63)"/><path d=" M 290.17 376.07 L 278.52 369.35 C 277.57 368.8 277.69 367.84 278.79 367.21 L 289.9 360.79 C 291.043 360.156 292.419 360.1 293.61 360.64 L 305.25 367.36 C 306.2 367.91 306.08 368.87 304.98 369.5 L 293.87 375.92 C 292.73 376.554 291.357 376.61 290.17 376.07 L 290.17 376.07 Z " fill="rgb(43,48,63)"/><path d=" M 306.63 385.58 L 295 378.86 C 294.05 378.31 294.17 377.35 295.26 376.72 L 306.38 370.3 C 307.52 369.666 308.893 369.61 310.08 370.15 L 321.73 376.87 C 322.68 377.42 322.56 378.38 321.46 379.01 L 310.35 385.43 C 309.204 386.068 307.823 386.123 306.63 385.58 L 306.63 385.58 Z " fill="rgb(43,48,63)"/><path d=" M 323.1 395.09 L 311.45 388.36 C 310.5 387.81 310.62 386.86 311.72 386.22 L 322.83 379.81 C 323.97 379.168 325.349 379.108 326.54 379.65 L 338.19 386.38 C 339.14 386.92 339.02 387.88 337.92 388.52 L 326.81 394.93 C 325.668 395.568 324.292 395.627 323.1 395.09 L 323.1 395.09 Z " fill="rgb(43,48,63)"/><path d=" M 339.57 404.59 L 327.92 397.87 C 326.97 397.32 327.09 396.36 328.19 395.73 L 339.3 389.31 C 340.443 388.676 341.819 388.62 343.01 389.16 L 354.65 395.88 C 355.65 396.43 355.48 397.39 354.39 398.02 L 343.27 404.44 C 342.13 405.074 340.757 405.13 339.57 404.59 L 339.57 404.59 Z " fill="rgb(43,48,63)"/><path d=" M 356 414.1 L 344.36 407.38 C 343.41 406.83 343.53 405.87 344.63 405.24 L 355.74 398.82 C 356.88 398.186 358.253 398.13 359.44 398.67 L 371.09 405.39 C 372.04 405.94 371.92 406.9 370.82 407.53 L 359.74 414 C 358.581 414.628 357.191 414.666 356 414.1 Z " fill="rgb(43,48,63)"/><path d=" M 158.43 300 L 134.34 286.1 C 133.34 285.55 133.51 284.59 134.61 283.96 L 145.72 277.54 C 146.863 276.906 148.239 276.85 149.43 277.39 L 173.51 291.29 C 174.51 291.84 174.34 292.8 173.25 293.43 L 162.13 299.85 C 160.99 300.484 159.617 300.54 158.43 300 Z " fill="rgb(43,48,63)"/><path d=" M 150.74 314 L 139.1 307.3 C 138.15 306.75 138.26 305.8 139.36 305.16 L 150.47 298.75 C 151.61 298.108 152.989 298.048 154.18 298.59 L 165.83 305.32 C 166.78 305.86 166.66 306.82 165.56 307.46 L 154.45 313.87 C 153.304 314.498 151.928 314.546 150.74 314 Z " fill="rgb(43,48,63)"/><path d=" M 167.21 323.53 L 155.56 316.81 C 154.61 316.26 154.73 315.3 155.83 314.67 L 166.94 308.25 C 168.083 307.616 169.459 307.56 170.65 308.1 L 182.29 314.82 C 183.29 315.37 183.12 316.33 182.03 316.96 L 170.91 323.38 C 169.77 324.014 168.397 324.07 167.21 323.53 Z " fill="rgb(43,48,63)"/><path d=" M 183.67 333 L 172 326.31 C 171 325.76 171.17 324.81 172.27 324.17 L 183.38 317.76 C 184.522 317.122 185.898 317.063 187.09 317.6 L 198.74 324.33 C 199.74 324.88 199.57 325.83 198.47 326.47 L 187.36 332.88 C 186.219 333.503 184.849 333.547 183.67 333 Z " fill="rgb(43,48,63)"/><path d=" M 200.13 342.54 L 188.49 335.82 C 187.49 335.27 187.66 334.31 188.76 333.68 L 199.87 327.26 C 201.01 326.626 202.383 326.57 203.57 327.11 L 215.22 333.83 C 216.17 334.38 216.05 335.34 214.95 335.97 L 203.84 342.39 C 202.697 343.024 201.321 343.08 200.13 342.54 Z " fill="rgb(43,48,63)"/><path d=" M 216.6 352.05 L 205 345.33 C 204.05 344.78 204.17 343.82 205.27 343.19 L 216.38 336.77 C 217.523 336.136 218.899 336.08 220.09 336.62 L 231.73 343.34 C 232.68 343.89 232.57 344.85 231.47 345.48 L 220.36 351.89 C 219.207 352.549 217.805 352.609 216.6 352.05 Z " fill="rgb(43,48,63)"/><path d=" M 233.06 361.55 L 221.42 354.83 C 220.47 354.28 220.59 353.32 221.68 352.69 L 232.8 346.27 C 233.94 345.636 235.313 345.58 236.5 346.12 L 248.15 352.84 C 249.1 353.39 248.98 354.35 247.88 354.98 L 236.77 361.4 C 235.627 362.034 234.251 362.09 233.06 361.55 Z " fill="rgb(43,48,63)"/><path d=" M 249.53 371.06 L 237.88 364.34 C 236.93 363.79 237.05 362.83 238.15 362.2 L 249.26 355.78 C 250.403 355.146 251.779 355.09 252.97 355.63 L 264.61 362.35 C 265.56 362.9 265.44 363.86 264.35 364.49 L 253.24 370.91 C 252.097 371.544 250.721 371.6 249.53 371.06 Z " fill="rgb(43,48,63)"/><path d=" M 266 380.57 L 254.36 373.84 C 253.41 373.29 253.53 372.34 254.62 371.7 L 265.74 365.29 C 266.877 364.648 268.252 364.588 269.44 365.13 L 281.09 371.86 C 282.04 372.4 281.92 373.36 280.82 374 L 269.71 380.41 C 268.568 381.048 267.192 381.107 266 380.57 L 266 380.57 Z " fill="rgb(43,48,63)"/><path d=" M 282.46 390.07 L 270.81 383.35 C 269.86 382.8 269.98 381.84 271.08 381.21 L 282.19 374.79 C 283.333 374.156 284.709 374.1 285.9 374.64 L 297.54 381.36 C 298.49 381.91 298.37 382.87 297.28 383.5 L 286.16 389.92 C 285.02 390.554 283.647 390.61 282.46 390.07 L 282.46 390.07 Z " fill="rgb(43,48,63)"/><path d=" M 298.92 399.58 L 287.28 392.85 C 286.33 392.31 286.45 391.35 287.54 390.71 L 298.66 384.3 C 299.798 383.663 301.171 383.603 302.36 384.14 L 314 390.87 C 314.95 391.42 314.83 392.37 313.73 393.01 L 302.62 399.42 C 301.482 400.059 300.109 400.118 298.92 399.58 Z " fill="rgb(43,48,63)"/><path d=" M 315.39 409.08 L 303.74 402.36 C 302.79 401.81 302.91 400.85 304.01 400.22 L 315.12 393.8 C 316.263 393.166 317.639 393.11 318.83 393.65 L 330.47 400.37 C 331.42 400.92 331.3 401.88 330.21 402.51 L 319.09 408.93 C 317.95 409.564 316.577 409.62 315.39 409.08 Z " fill="rgb(43,48,63)"/><path d=" M 352.23 430.36 L 320.23 411.87 C 319.28 411.32 319.39 410.36 320.49 409.73 L 331.6 403.31 C 332.743 402.676 334.119 402.62 335.31 403.16 L 367.31 421.65 C 368.26 422.19 368.14 423.15 367.04 423.79 L 355.93 430.2 C 354.791 430.834 353.419 430.894 352.23 430.36 L 352.23 430.36 Z " fill="rgb(43,48,63)"/><path d=" M 134.28 304.52 L 118.4 295.35 C 117.4 294.8 117.57 293.84 118.66 293.21 L 129.78 286.8 C 130.917 286.158 132.292 286.098 133.48 286.64 L 149.36 295.81 C 150.31 296.36 150.19 297.32 149.1 297.95 L 138 304.37 C 136.855 305.011 135.473 305.067 134.28 304.52 Z " fill="rgb(43,48,63)"/><path d=" M 416.71 393.13 L 182.87 258.13 C 181.87 257.59 182.04 256.63 183.14 255.99 L 188.7 252.79 C 189.838 252.153 191.211 252.093 192.4 252.63 L 426.24 387.63 C 427.19 388.18 427.07 389.13 425.97 389.77 L 420.42 393 C 419.274 393.628 417.898 393.676 416.71 393.13 Z " fill="rgb(43,48,63)"/><path d=" M 271.85 408.48 C 271.516 409.207 270.945 409.8 270.23 410.16 L 205.89 447.31 C 203.694 448.531 201.048 448.639 198.76 447.6 L 88.76 384.11 C 88.29 383.866 87.911 383.477 87.68 383 C 87.28 382 87.84 380.89 89.3 380.05 L 153.65 342.89 C 155.846 341.669 158.492 341.561 160.78 342.6 L 270.78 406.09 C 271.702 406.49 272.166 407.526 271.85 408.48 Z " fill="rgb(177,180,196)"/><path d=" M 271.85 408.48 C 271.516 409.207 270.945 409.8 270.23 410.16 L 205.89 447.31 C 203.694 448.531 201.048 448.639 198.76 447.6 L 88.76 384.11 C 88.29 383.866 87.911 383.477 87.68 383 C 88.021 382.28 88.59 381.693 89.3 381.33 L 153.65 344.18 C 155.845 342.957 158.49 342.846 160.78 343.88 L 270.78 407.38 C 271.247 407.62 271.623 408.007 271.85 408.48 Z " fill="rgb(195,198,209)"/><path d=" M 434.51 382.89 L 200.67 247.89 C 199.626 247.118 199.007 245.899 199 244.6 L 199 241.85 C 199 240.58 199.77 240 200.72 240.55 L 434.56 375.55 C 435.623 376.307 436.261 377.525 436.28 378.83 L 436.28 381.58 C 436.23 382.86 435.46 383.44 434.51 382.89 Z " fill="rgb(43,48,63)"/><path d=" M 236 234.56 L 212.9 221.25 C 210.01 219.58 207.66 215.09 207.66 211.25 L 207.66 186.48 C 207.66 182.62 210.01 180.85 212.9 182.48 L 236 195.83 C 238.9 197.5 241.24 201.99 241.24 205.83 L 241.24 230.6 C 241.2 234.46 238.86 236.23 236 234.56 Z " fill="rgb(233,234,242)"/><path d=" M 235.91 177.83 L 212.85 164.52 C 209.96 162.85 207.61 156.02 207.61 152.68 L 207.61 123.76 C 207.61 119.9 209.96 118.13 212.85 119.76 L 235.91 133.07 C 238.81 134.74 241.15 139.23 241.15 143.07 L 241.15 171.99 C 241.15 175.39 238.81 179.5 235.91 177.83 Z " fill="rgb(233,234,242)"/><path d=" M 224.51 158.51 C 219.82 155.8 216 149.18 216 143.76 C 216 138.34 219.82 136.13 224.51 138.84 C 229.2 141.55 233.03 148.17 233.03 153.59 C 233.03 159.01 229.21 161.22 224.51 158.51 Z  M 224.51 141.36 C 221.02 139.36 218.18 140.99 218.18 145.02 C 218.411 149.487 220.764 153.575 224.51 156.02 C 228.01 158.02 230.85 156.4 230.85 152.37 C 230.619 147.897 228.263 143.805 224.51 141.36 L 224.51 141.36 Z " fill="rgb(20,184,166)"/><path d=" M 226.85 154.5 L 222.99 148.36 L 222.99 143.25 L 225.17 144.51 L 225.17 148.48 L 228.29 153.43 L 226.85 154.5 L 226.85 154.5 Z " fill="rgb(20,184,166)"/><path d=" M 235.88 116.66 L 212.82 103.35 C 209.93 101.67 207.58 94.15 207.58 90.8 L 207.58 64.18 C 207.58 60.84 209.93 59.48 212.82 61.18 L 235.88 74.5 C 238.975 76.513 240.922 79.883 241.12 83.57 L 241.12 110.2 C 241.12 113.51 238.78 118.33 235.88 116.66 Z " fill="rgb(233,234,242)"/><path d=" M 224.35 84.75 C 222.96 83.95 221.84 84.6 221.84 86.21 C 221.934 87.978 222.866 89.594 224.35 90.56 C 225.74 91.36 226.87 90.71 226.87 89.11 C 226.769 87.339 225.834 85.721 224.35 84.75 L 224.35 84.75 Z  M 231.06 85.75 L 229.06 84.59 C 228.736 84.369 228.502 84.039 228.4 83.66 L 227.88 81.55 C 227.771 81.172 227.534 80.843 227.21 80.62 L 221.51 77.33 C 221.23 77.17 220.94 77.24 220.85 77.5 L 220.33 79 C 220.278 79.123 220.171 79.214 220.042 79.247 C 219.913 79.281 219.775 79.252 219.67 79.17 L 217.67 78.01 C 216.75 77.47 216 77.91 216 79.01 L 216 87.73 C 216.064 88.907 216.684 89.984 217.67 90.63 L 231.09 98.38 C 232.01 98.91 232.77 98.48 232.77 97.38 L 232.77 88.63 C 232.697 87.443 232.061 86.362 231.06 85.72 L 231.06 85.75 Z  M 224.35 92.53 C 221.879 90.913 220.323 88.218 220.16 85.27 C 220.16 82.59 222.04 81.51 224.35 82.85 C 226.827 84.461 228.385 87.159 228.54 90.11 C 228.54 92.75 226.67 93.84 224.35 92.5 L 224.35 92.53 Z  M 230.47 88.7 C 230.129 88.478 229.913 88.107 229.89 87.7 C 229.89 87.32 230.15 87.17 230.47 87.36 C 230.815 87.58 231.035 87.952 231.06 88.36 C 231.06 88.71 230.8 88.86 230.47 88.67 L 230.47 88.7 Z " fill="rgb(20,184,166)"/><path d=" M 231.63 210.35 C 231.63 214.86 224.56 220.72 224.56 220.72 C 224.56 220.72 217.48 206.72 217.48 202.18 C 217.48 197.64 220.65 195.84 224.56 198.09 C 228.735 200.817 231.361 205.37 231.63 210.35 Z " fill="rgb(20,184,166)"/><path d=" M 221.286 207.848 C 219.481 204.722 219.483 201.337 221.29 200.294 C 223.096 199.251 226.028 200.942 227.833 204.068 C 229.638 207.194 229.636 210.579 227.83 211.622 C 226.023 212.665 223.091 210.974 221.286 207.848 Z " fill="rgb(233,234,242)"/><path d=" M 399.13 271 L 259.52 190.39 C 257.16 189.04 255.26 185.39 255.26 182.26 L 255.26 88.43 C 255.26 85.3 257.16 83.86 259.52 85.22 L 399.13 165.82 C 401.48 167.18 403.38 170.82 403.38 173.96 L 403.38 267.78 C 403.38 270.92 401.48 272.36 399.13 271 Z " fill="rgb(233,234,242)"/><path d=" M 383 202.79 L 274.79 140.32 C 272.17 138.8 270.04 134.74 270.04 131.25 L 270.04 124.18 C 270.04 120.68 272.17 119.08 274.79 120.59 L 383 183.06 C 385.62 184.57 387.74 188.63 387.74 192.13 L 387.74 199.2 C 387.74 202.7 385.62 204.3 383 202.79 Z " fill="rgb(255,255,255)"/><path d=" M 324.15 200.6 L 274.79 172.1 C 272.17 170.59 270.04 166.53 270.04 163.03 L 270.04 156 C 270.04 152.5 272.17 150.9 274.79 152.41 L 324.15 180.91 C 326.77 182.42 328.89 186.48 328.89 189.98 L 328.89 197 C 328.89 200.5 326.77 202.11 324.15 200.6 Z " fill="rgb(20,184,166)"/><linearGradient id="_lgradient_1" x1="0.5065721410345625" y1="0.19409531189461404" x2="0.5065721410345624" y2="0.5968849283223552" gradientTransform="matrix(172.44,0,0,129.05,255.42,214.78)" gradientUnits="userSpaceOnUse"><stop offset="0%" stop-opacity="0.8" style="stop-color:rgb(233,234,242)"/><stop offset="100%" stop-opacity="0" style="stop-color:rgb(233,234,242)"/></linearGradient><path d=" M 427.86 291.64 C 427.86 291.64 375.23 303.24 332.68 255.98 C 332.68 255.98 255.42 214.78 255.42 214.78 L 255.42 244.28 L 427.86 343.83 L 427.86 291.64 Z " fill="url(#_lgradient_1)"/><mask id="_mask_2bvs0CncAY31mL1Q81CJrBA2GYLrhuf0" x="-200%" y="-200%" width="400%" height="400%"><rect x="-200%" y="-200%" width="400%" height="400%" style="fill:white;"/><path d=" M 427.86 291.64 C 427.86 291.64 375.23 303.24 332.68 255.98 C 332.68 255.98 255.42 214.78 255.42 214.78" fill="black" stroke="none"/></mask><path d=" M 427.86 291.64 C 427.86 291.64 375.23 303.24 332.68 255.98 C 332.68 255.98 255.42 214.78 255.42 214.78" fill="none"/><path d=" M 427.86 291.64 C 427.86 291.64 375.23 303.24 332.68 255.98 C 332.68 255.98 255.42 214.78 255.42 214.78" fill="none" mask="url(#_mask_2bvs0CncAY31mL1Q81CJrBA2GYLrhuf0)" vector-effect="non-scaling-stroke" stroke-width="2.12" stroke="rgb(204,206,221)" stroke-linejoin="miter" stroke-linecap="butt" stroke-miterlimit="10"/></g><g><path d=" M 255.19 44.4 C 253.651 47.152 251.781 49.704 249.62 52 C 249.02 52.7 244.39 50.93 245.36 50.43 C 246.33 49.93 249.36 45.71 250.88 42.89 C 252.152 39.523 253.233 36.088 254.12 32.6 C 255.07 29.15 255.89 24.09 256.59 21.71 C 256.956 19.914 258.342 18.501 260.13 18.1 C 261.8 17.71 262.88 18.17 262.57 20.19 C 262 23.71 259.27 37.45 255.19 44.4 Z " fill="rgb(255,206,169)"/><path d=" M 257.84 98.25 C 256.41 99.42 254.29 98.35 254.18 98.46 C 252.495 100.021 250.729 101.493 248.89 102.87 C 247.99 103.57 246.6 104.51 246.89 105.87 C 247.34 108.28 251.21 107.54 252.67 106.8 C 254.13 106.06 255.33 104.8 256.67 103.98 C 257.67 103.36 258.67 103.05 258.78 101.8 C 258.87 101.05 258.1 98.22 257.84 98.25 Z " fill="rgb(56,34,109)"/><path d=" M 258.76 101.3 C 258.57 102.49 257.61 102.82 256.63 103.43 C 255.23 104.3 253.99 105.56 252.53 106.3 C 251.07 107.04 247.82 107.66 246.87 105.93 C 247.38 108.26 251.19 107.53 252.63 106.8 C 254.07 106.07 255.29 104.8 256.63 103.98 C 257.63 103.36 258.63 103.05 258.74 101.8 C 258.76 101.634 258.767 101.467 258.76 101.3 L 258.76 101.3 Z " fill="rgb(156,115,255)"/><path d=" M 243.28 89.86 C 241.85 91.03 239.34 89.76 239.23 89.86 C 237.74 91.377 236.161 92.803 234.5 94.13 C 233.6 94.84 232.21 95.78 232.5 97.13 C 232.95 99.55 236.82 98.81 238.29 98.07 C 239.76 97.33 240.94 96.07 242.29 95.24 C 243.29 94.63 244.29 94.31 244.4 93.07 C 244.48 92.32 243.54 89.83 243.28 89.86 Z " fill="rgb(56,34,109)"/><path d=" M 244.35 92.74 C 244.16 93.93 243.2 94.26 242.22 94.87 C 240.82 95.74 239.58 97 238.12 97.74 C 236.66 98.48 233.4 99.1 232.46 97.37 C 232.97 99.7 236.77 98.97 238.22 98.24 C 239.67 97.51 240.87 96.24 242.22 95.41 C 243.22 94.8 244.22 94.49 244.33 93.24 C 244.35 93.074 244.357 92.907 244.35 92.74 L 244.35 92.74 Z " fill="rgb(156,115,255)"/><path d=" M 277 52.24 C 278.59 62.18 274.18 65.89 268.44 68 C 264.32 69.52 258.44 71.86 258.44 71.86 C 258.44 71.86 258.52 74.04 258.56 78.93 C 258.56 83.24 258.04 98.93 258.04 98.93 C 256.659 99.64 255.021 99.64 253.64 98.93 C 253.64 98.93 251.33 86.88 250.84 81.44 C 250.17 74.07 249.04 69.24 249.42 67.65 C 249.75 66.25 257.81 62.29 260.37 60.17 L 243.48 65.83 C 243.816 67.661 243.98 69.519 243.97 71.38 C 243.82 77.23 243.49 89.9 243.49 89.9 C 243.49 89.9 241.18 91.57 239.2 89.9 C 239.2 89.9 234.95 64.83 235.47 61.51 C 235.96 58.36 250.84 51.92 253.47 49.7 C 254.394 48.949 255.594 48.625 256.77 48.81 L 277 52.24 Z " fill="rgb(20,184,166)"/><g><g><path d=" M 236.54 56.38 L 247.89 49.83 C 248.09 49.71 248.34 49.71 248.54 49.83 L 268.44 61.32 L 256.77 68.06 L 236.54 56.38 Z " fill="rgb(244,244,244)"/><path d=" M 257.3 65.65 L 258.17 66.15 C 258.24 66.15 258.23 66.26 258.17 66.31 L 257.34 66.79 C 257.254 66.83 257.156 66.83 257.07 66.79 L 256.2 66.29 C 256.13 66.29 256.14 66.18 256.2 66.13 L 257.03 65.65 C 257.116 65.61 257.214 65.61 257.3 65.65 Z " fill="rgb(58,44,109)"/><path d=" M 256.08 65 L 256.94 65.49 C 257.01 65.49 257 65.61 256.94 65.65 L 256.12 66.13 C 256.032 66.175 255.928 66.175 255.84 66.13 L 254.98 65.63 C 254.91 65.63 254.92 65.52 254.98 65.47 L 255.8 65 C 255.887 64.95 255.993 64.95 256.08 65 Z " fill="rgb(58,44,109)"/><path d=" M 254.84 64.23 L 255.7 64.73 C 255.77 64.73 255.77 64.84 255.7 64.89 L 254.88 65.36 C 254.792 65.405 254.688 65.405 254.6 65.36 L 253.74 64.86 C 253.67 64.86 253.68 64.75 253.74 64.7 L 254.56 64.22 C 254.65 64.179 254.754 64.182 254.84 64.23 Z " fill="rgb(58,44,109)"/><path d=" M 253.63 63.53 L 254.49 64.03 C 254.56 64.03 254.56 64.14 254.49 64.19 L 253.67 64.67 C 253.581 64.71 253.479 64.71 253.39 64.67 L 252.53 64.17 C 252.46 64.17 252.47 64.06 252.53 64.01 L 253.35 63.53 C 253.439 63.49 253.541 63.49 253.63 63.53 Z " fill="rgb(58,44,109)"/><path d=" M 252.4 62.82 L 253.27 63.32 C 253.34 63.32 253.33 63.44 253.27 63.48 L 252.44 63.96 C 252.355 64.004 252.255 64.004 252.17 63.96 L 251.3 63.46 C 251.23 63.46 251.24 63.35 251.3 63.3 L 252.13 62.83 C 252.213 62.782 252.314 62.779 252.4 62.82 Z " fill="rgb(58,44,109)"/><path d=" M 251.18 62.12 L 252.05 62.62 C 252.12 62.62 252.11 62.73 252.05 62.78 L 251.22 63.25 C 251.135 63.294 251.035 63.294 250.95 63.25 L 250.08 62.75 C 250.01 62.75 250.02 62.64 250.08 62.6 L 250.91 62.12 C 250.995 62.076 251.095 62.076 251.18 62.12 L 251.18 62.12 Z " fill="rgb(58,44,109)"/><path d=" M 250 61.41 L 250.86 61.91 C 250.93 61.91 250.92 62.02 250.86 62.07 L 250.04 62.55 C 249.951 62.59 249.849 62.59 249.76 62.55 L 248.9 62.05 C 248.83 62.05 248.83 61.94 248.9 61.89 L 249.72 61.41 C 249.809 61.37 249.911 61.37 250 61.41 L 250 61.41 Z " fill="rgb(58,44,109)"/><path d=" M 248.73 60.7 L 249.6 61.2 C 249.67 61.2 249.66 61.32 249.6 61.36 L 248.77 61.84 C 248.685 61.884 248.585 61.884 248.5 61.84 L 247.63 61.34 C 247.56 61.34 247.57 61.23 247.63 61.18 L 248.46 60.71 C 248.543 60.662 248.644 60.659 248.73 60.7 Z " fill="rgb(58,44,109)"/><path d=" M 247.51 60 L 248.37 60.5 C 248.44 60.5 248.43 60.61 248.37 60.66 L 247.55 61.13 C 247.462 61.175 247.358 61.175 247.27 61.13 L 246.41 60.63 C 246.34 60.63 246.35 60.52 246.41 60.48 L 247.23 60 C 247.318 59.955 247.422 59.955 247.51 60 Z " fill="rgb(58,44,109)"/><path d=" M 246.28 59.29 L 247.15 59.79 C 247.22 59.79 247.21 59.9 247.15 59.95 L 246.32 60.43 C 246.234 60.47 246.136 60.47 246.05 60.43 L 245.18 59.93 C 245.11 59.93 245.12 59.82 245.18 59.77 L 246.01 59.29 C 246.095 59.246 246.195 59.246 246.28 59.29 Z " fill="rgb(58,44,109)"/><path d=" M 245.06 58.58 L 245.92 59.08 C 245.99 59.08 245.99 59.19 245.92 59.24 L 245.1 59.72 C 245.012 59.765 244.908 59.765 244.82 59.72 L 243.96 59.22 C 243.89 59.22 243.9 59.11 243.96 59.06 L 244.78 58.59 C 244.866 58.542 244.97 58.539 245.06 58.58 Z " fill="rgb(58,44,109)"/><path d=" M 243.84 57.88 L 244.7 58.38 C 244.77 58.38 244.76 58.49 244.7 58.54 L 243.87 59.01 C 243.785 59.054 243.685 59.054 243.6 59.01 L 242.73 58.51 C 242.66 58.51 242.67 58.4 242.73 58.35 L 243.56 57.88 C 243.648 57.835 243.752 57.835 243.84 57.88 L 243.84 57.88 Z " fill="rgb(58,44,109)"/><path d=" M 242.61 57.17 L 243.48 57.67 C 243.55 57.67 243.54 57.78 243.48 57.83 L 242.65 58.3 C 242.565 58.344 242.465 58.344 242.38 58.3 L 241.51 57.8 C 241.44 57.8 241.45 57.68 241.51 57.64 L 242.34 57.16 C 242.426 57.119 242.527 57.122 242.61 57.17 Z " fill="rgb(58,44,109)"/><path d=" M 240.8 56.12 L 242.25 56.96 C 242.32 56.96 242.31 57.07 242.25 57.12 L 241.43 57.6 C 241.341 57.64 241.239 57.64 241.15 57.6 L 239.7 56.76 C 239.63 56.76 239.63 56.65 239.7 56.6 L 240.52 56.12 C 240.609 56.08 240.711 56.08 240.8 56.12 L 240.8 56.12 Z " fill="rgb(58,44,109)"/><path d=" M 256.67 63.92 L 257.54 64.42 C 257.61 64.42 257.6 64.53 257.54 64.58 L 256.71 65.05 C 256.627 65.1 256.523 65.1 256.44 65.05 L 255.57 64.56 C 255.5 64.56 255.51 64.44 255.57 64.4 L 256.4 63.92 C 256.485 63.876 256.585 63.876 256.67 63.92 Z " fill="rgb(58,44,109)"/><path d=" M 255.45 63.21 L 256.31 63.71 C 256.38 63.71 256.37 63.82 256.31 63.87 L 255.49 64.35 C 255.401 64.39 255.299 64.39 255.21 64.35 L 254.35 63.85 C 254.28 63.85 254.28 63.74 254.35 63.69 L 255.17 63.21 C 255.258 63.165 255.362 63.165 255.45 63.21 Z " fill="rgb(58,44,109)"/><path d=" M 254.22 62.5 L 255.08 63 C 255.16 63 255.15 63.11 255.08 63.16 L 254.26 63.64 C 254.171 63.68 254.069 63.68 253.98 63.64 L 253.12 63.14 C 253.05 63.14 253.06 63.03 253.12 62.98 L 253.94 62.5 C 254.029 62.46 254.131 62.46 254.22 62.5 Z " fill="rgb(58,44,109)"/><path d=" M 253 61.79 L 253.87 62.29 C 253.94 62.29 253.93 62.41 253.87 62.45 L 253.04 62.93 C 252.955 62.974 252.855 62.974 252.77 62.93 L 251.9 62.43 C 251.83 62.43 251.84 62.32 251.9 62.27 L 252.73 61.8 C 252.813 61.752 252.914 61.749 253 61.79 L 253 61.79 Z " fill="rgb(58,44,109)"/><path d=" M 251.78 61.09 L 252.64 61.59 C 252.71 61.59 252.7 61.7 252.64 61.75 L 251.82 62.23 C 251.731 62.27 251.629 62.27 251.54 62.23 L 250.68 61.73 C 250.61 61.73 250.61 61.62 250.68 61.57 L 251.5 61.09 C 251.589 61.05 251.691 61.05 251.78 61.09 Z " fill="rgb(58,44,109)"/><path d=" M 250.55 60.38 L 251.42 60.88 C 251.49 60.88 251.48 61 251.42 61.04 L 250.59 61.52 C 250.505 61.564 250.405 61.564 250.32 61.52 L 249.45 61.02 C 249.38 61.02 249.39 60.91 249.45 60.86 L 250.28 60.39 C 250.363 60.342 250.464 60.339 250.55 60.38 L 250.55 60.38 Z " fill="rgb(58,44,109)"/><path d=" M 249.32 59.68 L 250.19 60.18 C 250.26 60.18 250.25 60.29 250.19 60.33 L 249.36 60.81 C 249.275 60.854 249.175 60.854 249.09 60.81 L 248.22 60.31 C 248.15 60.31 248.16 60.2 248.22 60.15 L 249.05 59.68 C 249.135 59.636 249.235 59.636 249.32 59.68 L 249.32 59.68 Z " fill="rgb(58,44,109)"/><path d=" M 248.1 59 L 248.96 59.5 C 249.03 59.5 249.02 59.61 248.96 59.66 L 248.14 60.13 C 248.052 60.175 247.948 60.175 247.86 60.13 L 247 59.63 C 246.93 59.63 246.94 59.52 247 59.48 L 247.82 59 C 247.908 58.955 248.012 58.955 248.1 59 L 248.1 59 Z " fill="rgb(58,44,109)"/><path d=" M 246.87 58.26 L 247.74 58.76 C 247.81 58.76 247.8 58.87 247.74 58.92 L 246.91 59.39 C 246.825 59.434 246.725 59.434 246.64 59.39 L 245.77 58.89 C 245.7 58.89 245.71 58.77 245.77 58.73 L 246.6 58.25 C 246.686 58.209 246.787 58.212 246.87 58.26 Z " fill="rgb(58,44,109)"/><path d=" M 245.65 57.55 L 246.51 58.05 C 246.58 58.05 246.57 58.16 246.51 58.21 L 245.68 58.69 C 245.594 58.73 245.496 58.73 245.41 58.69 L 244.54 58.19 C 244.47 58.19 244.48 58.08 244.54 58.03 L 245.37 57.55 C 245.459 57.51 245.561 57.51 245.65 57.55 Z " fill="rgb(58,44,109)"/><path d=" M 244.42 56.84 L 245.28 57.34 C 245.35 57.34 245.35 57.45 245.28 57.5 L 244.46 57.98 C 244.372 58.025 244.268 58.025 244.18 57.98 L 243.32 57.48 C 243.25 57.48 243.26 57.37 243.32 57.32 L 244.14 56.84 C 244.229 56.8 244.331 56.8 244.42 56.84 Z " fill="rgb(58,44,109)"/><path d=" M 243.19 56.14 L 244.06 56.63 C 244.13 56.63 244.12 56.75 244.06 56.79 L 243.23 57.27 C 243.145 57.314 243.045 57.314 242.96 57.27 L 242.09 56.77 C 242.02 56.77 242.03 56.66 242.09 56.61 L 242.92 56.14 C 243.003 56.09 243.107 56.09 243.19 56.14 L 243.19 56.14 Z " fill="rgb(58,44,109)"/><path d=" M 257.9 64.63 L 259.35 65.47 C 259.42 65.47 259.42 65.58 259.35 65.63 L 258.53 66.1 C 258.442 66.145 258.338 66.145 258.25 66.1 L 256.8 65.26 C 256.73 65.26 256.74 65.15 256.8 65.1 L 257.62 64.63 C 257.708 64.585 257.812 64.585 257.9 64.63 Z " fill="rgb(58,44,109)"/><path d=" M 240.86 56.08 L 241.72 56.58 C 241.802 56.62 241.898 56.62 241.98 56.58 L 242.85 56.07 C 242.881 56.058 242.902 56.028 242.902 55.995 C 242.902 55.962 242.881 55.932 242.85 55.92 L 242.78 55.92 C 242.72 55.92 242.72 55.83 242.78 55.79 L 243.7 55.26 C 243.78 55.26 243.78 55.15 243.7 55.11 L 243.15 54.79 C 243.068 54.75 242.972 54.75 242.89 54.79 L 242.03 55.29 L 241.85 55.39 L 241.72 55.47 L 241.59 55.54 L 240.85 55.97 C 240.823 56.003 240.828 56.052 240.86 56.08 Z " fill="rgb(58,44,109)"/><path d=" M 262 62.91 L 262.87 63.41 C 262.94 63.41 262.93 63.52 262.87 63.57 L 262.04 64.04 C 261.957 64.09 261.853 64.09 261.77 64.04 L 260.9 63.55 C 260.83 63.5 260.84 63.43 260.9 63.39 L 261.73 62.91 C 261.815 62.866 261.915 62.866 262 62.91 Z " fill="rgb(58,44,109)"/><path d=" M 260.82 62.2 L 261.69 62.7 C 261.76 62.7 261.75 62.82 261.69 62.86 L 260.86 63.34 C 260.775 63.384 260.675 63.384 260.59 63.34 L 259.72 62.84 C 259.65 62.84 259.66 62.73 259.72 62.68 L 260.55 62.21 C 260.633 62.162 260.734 62.159 260.82 62.2 Z " fill="rgb(58,44,109)"/><path d=" M 259.6 61.5 L 260.47 62 C 260.54 62 260.53 62.11 260.47 62.16 L 259.64 62.63 C 259.555 62.674 259.455 62.674 259.37 62.63 L 258.5 62.13 C 258.43 62.13 258.44 62.01 258.5 61.97 L 259.33 61.49 C 259.416 61.449 259.517 61.452 259.6 61.5 Z " fill="rgb(58,44,109)"/><path d=" M 249.21 55.5 L 250.07 56 C 250.14 56 250.13 56.11 250.07 56.16 L 249.25 56.63 C 249.162 56.675 249.058 56.675 248.97 56.63 L 248.11 56.13 C 248.03 56.13 248.04 56.02 248.11 55.97 L 248.93 55.5 C 249.018 55.455 249.122 55.455 249.21 55.5 L 249.21 55.5 Z " fill="rgb(58,44,109)"/><path d=" M 248 54.79 L 248.87 55.29 C 248.94 55.29 248.93 55.4 248.87 55.45 L 248.04 55.93 C 247.954 55.97 247.856 55.97 247.77 55.93 L 246.9 55.43 C 246.83 55.43 246.84 55.32 246.9 55.27 L 247.73 54.79 C 247.816 54.75 247.914 54.75 248 54.79 L 248 54.79 Z " fill="rgb(58,44,109)"/><path d=" M 246.76 54.09 L 247.63 54.59 C 247.7 54.59 247.69 54.7 247.63 54.75 L 246.8 55.22 C 246.715 55.264 246.615 55.264 246.53 55.22 L 245.66 54.72 C 245.59 54.72 245.6 54.61 245.66 54.57 L 246.49 54.09 C 246.575 54.046 246.675 54.046 246.76 54.09 L 246.76 54.09 Z " fill="rgb(58,44,109)"/><path d=" M 245.54 53.38 L 246.41 53.88 C 246.48 53.88 246.47 53.99 246.41 54.04 L 245.58 54.52 C 245.494 54.56 245.396 54.56 245.31 54.52 L 244.44 54.02 C 244.37 54.02 244.38 53.91 244.44 53.86 L 245.27 53.38 C 245.356 53.34 245.454 53.34 245.54 53.38 Z " fill="rgb(58,44,109)"/><path d=" M 258.07 60.61 L 259.25 61.29 C 259.32 61.29 259.31 61.41 259.25 61.45 L 258.42 61.93 C 258.335 61.974 258.235 61.974 258.15 61.93 L 257 61.26 C 256.93 61.26 256.93 61.15 257 61.1 L 257.82 60.62 C 257.899 60.585 257.988 60.581 258.07 60.61 Z " fill="rgb(58,44,109)"/><path d=" M 250.43 56.2 L 251.61 56.88 C 251.68 56.88 251.67 56.99 251.61 57.04 L 250.78 57.52 C 250.694 57.56 250.596 57.56 250.51 57.52 L 249.33 56.84 C 249.26 56.84 249.26 56.73 249.33 56.68 L 250.15 56.2 C 250.239 56.16 250.341 56.16 250.43 56.2 Z " fill="rgb(58,44,109)"/><path d=" M 252 57.09 L 257.75 60.41 C 257.82 60.41 257.81 60.52 257.75 60.57 L 256.93 61.04 C 256.842 61.085 256.738 61.085 256.65 61.04 L 250.9 57.72 C 250.83 57.72 250.84 57.61 250.9 57.57 L 251.73 57.09 C 251.815 57.046 251.915 57.046 252 57.09 Z " fill="rgb(58,44,109)"/><path d=" M 257.53 63 L 258.39 63.5 C 258.46 63.5 258.45 63.61 258.39 63.66 L 257.57 64.14 C 257.481 64.18 257.379 64.18 257.29 64.14 L 256.43 63.64 C 256.36 63.64 256.36 63.53 256.43 63.48 L 257.25 63 C 257.339 62.96 257.441 62.96 257.53 63 Z " fill="rgb(58,44,109)"/><path d=" M 256.3 62.33 L 257.17 62.83 C 257.24 62.83 257.23 62.95 257.17 62.99 L 256.34 63.47 C 256.255 63.514 256.155 63.514 256.07 63.47 L 255.2 62.97 C 255.13 62.97 255.14 62.86 255.2 62.81 L 256.03 62.34 C 256.113 62.292 256.214 62.289 256.3 62.33 Z " fill="rgb(58,44,109)"/><path d=" M 255.08 61.63 L 255.95 62.13 C 256.02 62.13 256.01 62.24 255.95 62.29 L 255.12 62.76 C 255.032 62.805 254.928 62.805 254.84 62.76 L 253.98 62.26 C 253.91 62.21 253.92 62.14 253.98 62.1 L 254.81 61.62 C 254.896 61.579 254.997 61.582 255.08 61.63 L 255.08 61.63 Z " fill="rgb(58,44,109)"/><path d=" M 253.86 60.92 L 254.72 61.42 C 254.79 61.42 254.78 61.53 254.72 61.58 L 253.9 62.06 C 253.811 62.1 253.709 62.1 253.62 62.06 L 252.76 61.56 C 252.69 61.56 252.7 61.45 252.76 61.4 L 253.58 60.92 C 253.669 60.88 253.771 60.88 253.86 60.92 L 253.86 60.92 Z " fill="rgb(58,44,109)"/><path d=" M 252.63 60.22 L 253.5 60.72 C 253.57 60.72 253.56 60.83 253.5 60.88 L 252.67 61.35 C 252.585 61.394 252.485 61.394 252.4 61.35 L 251.53 60.85 C 251.46 60.85 251.47 60.74 251.53 60.69 L 252.36 60.22 C 252.445 60.176 252.545 60.176 252.63 60.22 L 252.63 60.22 Z " fill="rgb(58,44,109)"/><path d=" M 251.41 59.51 L 252.28 60.01 C 252.35 60.01 252.34 60.12 252.28 60.17 L 251.45 60.65 C 251.364 60.69 251.266 60.69 251.18 60.65 L 250.31 60.15 C 250.24 60.15 250.25 60.04 250.31 59.99 L 251.14 59.51 C 251.226 59.47 251.324 59.47 251.41 59.51 Z " fill="rgb(58,44,109)"/><path d=" M 250.19 58.8 L 251.05 59.3 C 251.12 59.3 251.12 59.42 251.05 59.46 L 250.23 59.94 C 250.142 59.985 250.038 59.985 249.95 59.94 L 249.09 59.44 C 249.02 59.44 249.03 59.33 249.09 59.28 L 249.91 58.81 C 249.996 58.762 250.1 58.759 250.19 58.8 Z " fill="rgb(58,44,109)"/><path d=" M 249 58.1 L 249.86 58.6 C 249.93 58.6 249.92 58.71 249.86 58.76 L 249.04 59.23 C 248.953 59.28 248.847 59.28 248.76 59.23 L 247.9 58.74 C 247.83 58.74 247.83 58.62 247.9 58.58 L 248.72 58.1 C 248.808 58.055 248.912 58.055 249 58.1 Z " fill="rgb(58,44,109)"/><path d=" M 247.74 57.39 L 248.61 57.89 C 248.68 57.89 248.67 58 248.61 58.05 L 247.78 58.53 C 247.694 58.57 247.596 58.57 247.51 58.53 L 246.64 58.03 C 246.57 58.03 246.58 57.92 246.64 57.87 L 247.47 57.39 C 247.556 57.35 247.654 57.35 247.74 57.39 L 247.74 57.39 Z " fill="rgb(58,44,109)"/><path d=" M 246.52 56.69 L 247.38 57.19 C 247.46 57.19 247.45 57.3 247.38 57.34 L 246.55 57.82 C 246.462 57.865 246.358 57.865 246.27 57.82 L 245.41 57.32 C 245.34 57.32 245.35 57.21 245.41 57.16 L 246.23 56.69 C 246.321 56.642 246.429 56.642 246.52 56.69 Z " fill="rgb(58,44,109)"/><path d=" M 245.3 56 L 246.16 56.5 C 246.23 56.5 246.22 56.61 246.16 56.66 L 245.34 57.14 C 245.251 57.18 245.149 57.18 245.06 57.14 L 244.2 56.64 C 244.13 56.64 244.14 56.53 244.2 56.48 L 245 56 C 245.093 55.948 245.207 55.948 245.3 56 Z " fill="rgb(58,44,109)"/><path d=" M 244.07 55.27 L 244.94 55.77 C 245.01 55.77 245 55.89 244.94 55.93 L 244.11 56.41 C 244.025 56.454 243.925 56.454 243.84 56.41 L 242.97 55.91 C 242.9 55.91 242.91 55.8 242.97 55.75 L 243.8 55.28 C 243.883 55.232 243.984 55.229 244.07 55.27 L 244.07 55.27 Z " fill="rgb(58,44,109)"/><path d=" M 258.75 63.75 L 260.54 64.75 C 260.61 64.75 260.6 64.86 260.54 64.91 L 259.71 65.39 C 259.624 65.43 259.526 65.43 259.44 65.39 L 257.65 64.39 C 257.58 64.39 257.59 64.28 257.65 64.23 L 258.47 63.76 C 258.556 63.712 258.66 63.709 258.75 63.75 Z " fill="rgb(58,44,109)"/><path d=" M 259.32 62.71 L 260.18 63.21 C 260.26 63.21 260.25 63.32 260.18 63.36 L 259.36 63.84 C 259.272 63.885 259.168 63.885 259.08 63.84 L 258.22 63.34 C 258.15 63.34 258.16 63.23 258.22 63.18 L 259.04 62.71 C 259.128 62.665 259.232 62.665 259.32 62.71 Z " fill="rgb(58,44,109)"/><path d=" M 258.1 62 L 258.96 62.5 C 259.03 62.5 259.02 62.61 258.96 62.66 L 258.14 63.14 C 258.051 63.18 257.949 63.18 257.86 63.14 L 257 62.64 C 256.93 62.64 256.94 62.53 257 62.48 L 257.82 62 C 257.908 61.955 258.012 61.955 258.1 62 Z " fill="rgb(58,44,109)"/><path d=" M 256.87 61.29 L 257.74 61.79 C 257.81 61.79 257.8 61.91 257.74 61.95 L 256.91 62.43 C 256.825 62.474 256.725 62.474 256.64 62.43 L 255.77 61.93 C 255.7 61.93 255.71 61.82 255.77 61.77 L 256.6 61.3 C 256.683 61.252 256.784 61.249 256.87 61.29 Z " fill="rgb(58,44,109)"/><path d=" M 255.65 60.59 L 256.52 61.09 C 256.59 61.09 256.58 61.2 256.52 61.25 L 255.69 61.72 C 255.607 61.77 255.503 61.77 255.42 61.72 L 254.55 61.23 C 254.48 61.18 254.49 61.11 254.55 61.07 L 255.38 60.59 C 255.465 60.546 255.565 60.546 255.65 60.59 Z " fill="rgb(58,44,109)"/><path d=" M 254.43 59.88 L 255.29 60.38 C 255.36 60.38 255.36 60.49 255.29 60.54 L 254.47 61.02 C 254.381 61.06 254.279 61.06 254.19 61.02 L 253.33 60.52 C 253.26 60.52 253.27 60.41 253.33 60.36 L 254.15 59.88 C 254.239 59.84 254.341 59.84 254.43 59.88 L 254.43 59.88 Z " fill="rgb(58,44,109)"/><path d=" M 253.21 59.18 L 254.07 59.68 C 254.14 59.68 254.13 59.79 254.07 59.83 L 253.25 60.31 C 253.162 60.355 253.058 60.355 252.97 60.31 L 252.11 59.81 C 252.04 59.81 252.04 59.7 252.11 59.65 L 252.93 59.18 C 253.018 59.135 253.122 59.135 253.21 59.18 L 253.21 59.18 Z " fill="rgb(58,44,109)"/><path d=" M 252 58.47 L 252.87 58.97 C 252.94 58.97 252.93 59.08 252.87 59.13 L 252.04 59.61 C 251.954 59.65 251.856 59.65 251.77 59.61 L 250.9 59.11 C 250.83 59.11 250.84 59 250.9 58.95 L 251.73 58.47 C 251.816 58.43 251.914 58.43 252 58.47 L 252 58.47 Z " fill="rgb(58,44,109)"/><path d=" M 250.76 57.76 L 251.63 58.26 C 251.7 58.26 251.69 58.38 251.63 58.42 L 250.8 58.9 C 250.715 58.944 250.615 58.944 250.53 58.9 L 249.66 58.4 C 249.59 58.4 249.6 58.29 249.66 58.24 L 250.49 57.77 C 250.573 57.722 250.674 57.719 250.76 57.76 L 250.76 57.76 Z " fill="rgb(58,44,109)"/><path d=" M 249.54 57.06 L 250.4 57.56 C 250.47 57.56 250.46 57.67 250.4 57.72 L 249.58 58.19 C 249.492 58.235 249.388 58.235 249.3 58.19 L 248.44 57.69 C 248.37 57.69 248.38 57.57 248.44 57.53 L 249.26 57.05 C 249.35 57.009 249.454 57.012 249.54 57.06 Z " fill="rgb(58,44,109)"/><path d=" M 248.32 56.35 L 249.18 56.85 C 249.25 56.85 249.24 56.96 249.18 57.01 L 248.36 57.49 C 248.271 57.53 248.169 57.53 248.08 57.49 L 247.22 56.99 C 247.14 56.99 247.15 56.88 247.22 56.83 L 248.04 56.35 C 248.129 56.31 248.231 56.31 248.32 56.35 L 248.32 56.35 Z " fill="rgb(58,44,109)"/><path d=" M 247.09 55.65 L 247.96 56.15 C 248.03 56.15 248.02 56.26 247.96 56.31 L 247.13 56.78 C 247.045 56.824 246.945 56.824 246.86 56.78 L 245.99 56.28 C 245.92 56.28 245.93 56.17 245.99 56.13 L 246.82 55.65 C 246.905 55.606 247.005 55.606 247.09 55.65 Z " fill="rgb(58,44,109)"/><path d=" M 244.36 54.07 L 246.74 55.44 C 246.81 55.44 246.8 55.55 246.74 55.6 L 245.91 56.08 C 245.821 56.12 245.719 56.12 245.63 56.08 L 243.26 54.7 C 243.19 54.7 243.19 54.59 243.26 54.55 L 244.08 54.07 C 244.168 54.025 244.272 54.025 244.36 54.07 Z " fill="rgb(58,44,109)"/><path d=" M 260.54 63.41 L 261.72 64.09 C 261.79 64.09 261.78 64.21 261.72 64.25 L 260.9 64.73 C 260.812 64.775 260.708 64.775 260.62 64.73 L 259.44 64.05 C 259.37 64.05 259.38 63.94 259.44 63.89 L 260.27 63.41 C 260.356 63.37 260.454 63.37 260.54 63.41 Z " fill="rgb(58,44,109)"/><path d=" M 239.57 56.83 L 256.93 66.83 C 257 66.83 257 66.94 256.93 66.99 L 256.52 67.22 C 256.435 67.264 256.335 67.264 256.25 67.22 L 238.88 57.22 C 238.81 57.22 238.82 57.11 238.88 57.06 L 239.29 56.82 C 239.38 56.783 239.482 56.787 239.57 56.83 L 239.57 56.83 Z " fill="rgb(58,44,109)"/><path d=" M 259.89 57.28 L 259.77 57.34 L 256.77 59.08 L 251.44 56 L 251.33 55.93 L 254.44 54.14 L 259.89 57.28 L 259.89 57.28 Z " fill="rgb(191,191,191)"/><path d=" M 259.77 57.34 L 256.77 59.08 L 251.44 56 L 254.44 54.27 L 259.77 57.34 L 259.77 57.34 Z " fill="rgb(229,229,229)"/><path d=" M 268.44 61.32 L 268.44 61.59 C 268.443 61.981 268.237 62.343 267.9 62.54 L 257.32 68.64 C 256.984 68.839 256.566 68.839 256.23 68.64 L 237.09 57.64 C 236.735 57.435 236.523 57.05 236.54 56.64 L 236.54 56.37 L 256.77 68.05 L 268.44 61.32 Z " fill="rgb(229,229,229)"/><path d=" M 256.47 68.22 C 256.104 68.364 255.692 68.335 255.35 68.14 L 236.35 57.14 C 236.014 56.947 235.783 56.613 235.72 56.23 L 233.63 43.79 C 233.625 43.72 233.625 43.65 233.63 43.58 C 233.629 43.233 233.77 42.9 234.02 42.66 L 253.82 54.09 C 254.061 54.238 254.228 54.482 254.28 54.76 L 256.47 68.22 Z " fill="rgb(244,244,244)"/><path d=" M 256.77 68.06 L 256.64 68.14 L 256.47 68.22 L 254.21 54.76 C 254.158 54.482 253.991 54.238 253.75 54.09 L 234 42.66 C 234.073 42.577 234.161 42.509 234.26 42.46 L 254.1 53.91 C 254.345 54.056 254.516 54.3 254.57 54.58 L 256.77 68.06 Z " fill="rgb(229,229,229)"/></g></g><path d=" M 271.16 14.83 C 271.16 14.83 270.91 19.56 271.02 19.98 C 271.02 19.98 273.19 21.79 273.79 22.29 C 273.79 22.29 270.52 26.61 268.64 27.47 C 268.64 27.47 260.78 26.06 260.64 23.12 C 260.64 23.12 261.64 17.73 262.58 17.6 C 263.52 17.47 271.16 14.83 271.16 14.83 Z " fill="rgb(255,206,169)"/><path d=" M 271.68 20.8 C 271.68 20.8 268.25 25.92 263.46 26.4 C 261.95 24.91 261.81 19.61 263.9 17.92 C 263.9 17.92 261.98 16.36 260.66 16.67 C 259.23 17.515 258.162 18.857 257.66 20.44 C 256.433 23.974 255.861 27.701 255.97 31.44 C 256.05 36.44 255.97 49.15 255.97 49.15 C 256.539 52.183 258.376 54.829 261.02 56.42 C 264.482 58.384 268.564 58.949 272.43 58 C 274.86 57.43 275.76 56.08 276.6 54.31 C 276.38 50.8 274.99 43.55 275.6 39.12 C 276.21 34.69 277.12 31.39 277.36 27.82 C 277.6 24.25 276.89 24.31 275.09 23.03 C 274.009 22.205 272.869 21.46 271.68 20.8 Z " fill="rgb(244,244,244)"/><path d=" M 266.18 61.59 C 267.041 61.017 267.94 60.502 268.87 60.05 C 269.737 59.773 270.526 59.293 271.17 58.65 C 272.01 57.83 273.39 54.71 274.38 51.65 C 275.365 48.218 275.754 44.643 275.53 41.08 C 275.12 36.81 273.58 30.84 273.19 28.39 C 272.8 25.94 273.59 24.95 274.74 24.05 C 276.08 22.99 277.93 23.46 278.92 26.9 C 280.195 31.659 280.933 36.546 281.12 41.47 C 281.161 45.128 280.596 48.767 279.45 52.24 C 278.431 55.215 277.054 58.056 275.35 60.7 C 274.88 61.49 274.72 62.2 274 63.82 C 273.309 65.448 272.231 66.883 270.86 68 C 269.66 68.86 269.09 69 268.8 68.82 C 268.51 68.64 268.52 68.23 269.03 67.82 C 269.881 67.151 270.606 66.335 271.17 65.41 C 271.17 65.41 270.12 66.47 269.43 67.05 C 268.823 67.563 268.15 67.994 267.43 68.33 C 266.73 68.64 265.75 68.04 266.25 67.57 C 266.75 67.1 267.25 66.86 268.25 65.99 C 268.788 65.534 269.268 65.013 269.68 64.44 C 268.976 64.982 268.231 65.467 267.45 65.89 C 266.847 66.255 266.155 66.445 265.45 66.44 C 265.08 66.44 264.63 65.9 265.33 65.44 C 266.292 64.919 267.189 64.284 268 63.55 C 268.77 62.79 269.2 62.14 269 62.13 C 268.8 62.12 268.36 62.59 267.46 62.88 C 266.56 63.17 265.59 62.88 265.46 62.41 C 265.33 61.94 265.34 62 266.18 61.59 Z " fill="rgb(255,206,169)"/><path d=" M 260.44 7.77 L 260.44 7.77 C 261.01 4.1 263.66 1.32 267.44 1.53 C 270.567 1.689 273.241 3.829 274.082 6.845 C 274.924 9.86 273.743 13.076 271.15 14.83 C 271.016 15.388 270.818 15.928 270.56 16.44 C 269.23 18 265.18 19 264 18.8 C 262.587 18.672 261.397 17.692 261 16.33 C 259.74 13.45 260.13 9.59 260.44 7.77 Z " fill="rgb(255,206,169)"/><path d=" M 271.16 14.83 L 271.16 14.83 L 270.81 11.62 C 270.81 11.62 273.43 4.84 267.24 6.14 C 263.16 7 262.13 7.38 260.89 4.64 C 259.65 1.9 264 -0.57 269.23 0.12 C 272.946 0.504 275.747 3.675 275.67 7.41 C 275.54 9.43 275 13.51 271.16 14.83 Z " fill="rgb(58,44,109)"/><path d=" M 281.75 33.23 C 281.75 33.23 278.37 36.59 274.38 35.62 C 273.81 35.23 272.43 27.38 272.43 27.38 C 272.43 27.38 272.43 23.03 275.77 23.14 C 279.11 23.25 281.75 33.23 281.75 33.23 Z " fill="rgb(237,237,237)"/><path d=" M 256.25 26.71 C 255.305 26.676 254.409 26.278 253.75 25.6 C 253.89 23.84 256.14 17.16 260.66 16.67 C 259.43 17.532 258.456 18.71 257.84 20.08 C 257.137 22.245 256.605 24.462 256.25 26.71 L 256.25 26.71 Z " fill="rgb(237,237,237)"/></g><path d=" M 459.4 311.15 L 375.88 262.93 C 370.63 259.93 366.38 251.78 366.38 244.79 L 366.38 113.38 C 366.38 106.38 370.63 103.18 375.88 106.2 L 459.4 154.43 C 464.64 157.43 468.89 165.58 468.89 172.57 L 468.89 304 C 468.89 311 464.64 314.18 459.4 311.15 Z " fill="rgb(33,27,73)"/><path d=" M 462.74 313.07 L 465.6 311.66 L 463.67 307.87 L 462.74 313.07 L 462.74 313.07 Z " fill="rgb(33,27,73)"/><path d=" M 367.94 106.57 C 368.781 106.07 369.665 105.645 370.58 105.3 L 372.7 109.49 L 367.94 106.57 Z " fill="rgb(33,27,73)"/><path d=" M 457.21 312.25 L 373.68 264 C 368.44 261 364.19 252.85 364.19 245.86 L 364.19 114.48 C 364.19 107.48 368.44 104.27 373.68 107.3 L 457.21 155.53 C 462.45 158.53 466.7 166.67 466.7 173.66 L 466.7 305.07 C 466.7 312.06 462.45 315.28 457.21 312.25 Z " fill="rgb(30,41,59)"/><path d=" M 388.87 134.7 L 373.68 125.93 L 373.68 120.45 L 388.87 129.22 L 388.87 134.7 L 388.87 134.7 Z " fill="rgb(129,140,248)"/><path d=" M 456.26 173.61 L 391.72 136.34 L 391.72 130.87 L 456.26 168.13 L 456.26 173.61 L 456.26 173.61 Z " fill="rgb(236,72,153)"/><path d=" M 388.87 152.24 L 373.68 143.47 L 373.68 137.99 L 388.87 146.76 L 388.87 152.24 L 388.87 152.24 Z " fill="rgb(129,140,248)"/><path d=" M 434.43 178.54 L 391.72 153.88 L 391.72 148.4 L 434.43 173.06 L 434.43 178.54 L 434.43 178.54 Z " fill="rgb(244,206,44)"/><path d=" M 388.87 161 L 373.68 152.24 L 373.68 146.76 L 388.87 155.52 L 388.87 161 L 388.87 161 Z " fill="rgb(129,140,248)"/><path d=" M 444.87 193.34 L 391.72 162.65 L 391.72 157.17 L 444.87 187.86 L 444.87 193.34 L 444.87 193.34 Z " fill="rgb(251,146,60)"/><path d=" M 388.87 169.77 L 373.68 161 L 373.68 155.52 L 388.87 164.29 L 388.87 169.77 L 388.87 169.77 Z " fill="rgb(129,140,248)"/><path d=" M 428.74 192.79 L 391.72 171.42 L 391.72 165.94 L 428.74 187.31 L 428.74 192.79 L 428.74 192.79 Z " fill="rgb(162,152,226)"/><path d=" M 388.87 143.47 L 373.68 134.7 L 373.68 129.22 L 388.87 137.99 L 388.87 143.47 L 388.87 143.47 Z " fill="rgb(129,140,248)"/><path d=" M 423.99 163.75 L 391.72 145.11 L 391.72 139.63 L 423.99 158.26 L 423.99 163.75 L 423.99 163.75 Z " fill="rgb(79,70,229)"/><path d=" M 388.87 178.54 L 373.68 169.77 L 373.68 164.29 L 388.87 173.06 L 388.87 178.54 L 388.87 178.54 Z " fill="rgb(129,140,248)"/><path d=" M 410.7 191.14 L 391.72 180.18 L 391.72 174.7 L 410.7 185.66 L 410.7 191.14 L 410.7 191.14 Z " fill="rgb(195,58,252)"/><path d=" M 388.87 196.07 L 373.68 187.31 L 373.68 181.83 L 388.87 190.6 L 388.87 196.07 L 388.87 196.07 Z " fill="rgb(129,140,248)"/><path d=" M 451.52 232.24 L 391.72 197.72 L 391.72 192.24 L 451.52 226.76 L 451.52 232.24 L 451.52 232.24 Z " fill="rgb(244,206,44)"/><path d=" M 388.87 204.84 L 373.68 196.07 L 373.68 190.59 L 388.87 199.36 L 388.87 204.84 L 388.87 204.84 Z " fill="rgb(129,140,248)"/><path d=" M 409.75 216.9 L 391.72 206.49 L 391.72 201.01 L 409.75 211.42 L 409.75 216.9 L 409.75 216.9 Z " fill="rgb(251,146,60)"/><path d=" M 388.87 213.61 L 373.68 204.84 L 373.68 199.36 L 388.87 208.13 L 388.87 213.61 L 388.87 213.61 Z " fill="rgb(129,140,248)"/><path d=" M 444.87 245.94 L 391.72 215.25 L 391.72 209.78 L 444.87 240.46 L 444.87 245.94 L 444.87 245.94 Z " fill="rgb(162,152,226)"/><path d=" M 388.87 187.31 L 373.68 178.54 L 373.68 173.06 L 388.87 181.83 L 388.87 187.31 L 388.87 187.31 Z " fill="rgb(129,140,248)"/><path d=" M 442.02 218 L 391.72 188.95 L 391.72 183.47 L 442.02 212.52 L 442.02 218 L 442.02 218 Z " fill="rgb(79,70,229)"/><path d=" M 388.87 222.38 L 373.68 213.61 L 373.68 208.13 L 388.87 216.9 L 388.87 222.38 L 388.87 222.38 Z " fill="rgb(129,140,248)"/><path d=" M 398.36 227.86 L 391.72 224.02 L 391.72 218.54 L 398.36 222.38 L 398.36 227.86 L 398.36 227.86 Z " fill="rgb(236,72,153)"/><path d=" M 388.87 239.91 L 373.68 231.15 L 373.68 225.67 L 388.87 234.44 L 388.87 239.91 L 388.87 239.91 Z " fill="rgb(129,140,248)"/><path d=" M 404.06 248.68 L 391.72 241.56 L 391.72 236.08 L 404.06 243.2 L 404.06 248.68 L 404.06 248.68 Z " fill="rgb(244,206,44)"/><path d=" M 388.87 248.68 L 373.68 239.91 L 373.68 234.43 L 388.87 243.2 L 388.87 248.68 L 388.87 248.68 Z " fill="rgb(129,140,248)"/><path d=" M 423.99 268.96 L 391.72 250.33 L 391.72 244.85 L 423.99 263.48 L 423.99 268.96 L 423.99 268.96 Z " fill="rgb(251,146,60)"/><path d=" M 388.87 257.45 L 373.68 248.68 L 373.68 243.2 L 388.87 251.97 L 388.87 257.45 L 388.87 257.45 Z " fill="rgb(129,140,248)"/><path d=" M 442.97 288.69 L 391.72 259.09 L 391.72 253.61 L 442.97 283.21 L 442.97 288.69 L 442.97 288.69 Z " fill="rgb(129,140,248)"/><path d=" M 388.87 231.15 L 373.68 222.38 L 373.68 216.9 L 388.87 225.67 L 388.87 231.15 L 388.87 231.15 Z " fill="rgb(129,140,248)"/><path d=" M 456.26 270.06 L 391.72 232.79 L 391.72 227.31 L 456.26 264.57 L 456.26 270.06 L 456.26 270.06 Z " fill="rgb(79,70,229)"/><path d=" M 36.12 211.94 L 27 207.26 L 7.89 218.26 C 3.56 220.76 0.04 218.74 0.04 213.73 L 0.04 192.91 C 0.34 187.385 3.255 182.333 7.89 179.31 L 121.7 113.58 C 126.03 111.08 129.55 113.11 129.55 118.11 L 129.55 139 C 129.25 144.525 126.335 149.577 121.7 152.6 L 45.18 196.74" fill="rgb(177,180,196)"/><path d=" M 126.7 112.77 L 131 114.51 L 127.36 118.25 L 124.78 114.12 L 126.7 112.77 L 126.7 112.77 Z " fill="rgb(177,180,196)"/><path d=" M 36.12 211.94 L 40.65 213.76 L 40.66 209.86 L 36.65 209.06 L 36.12 211.94 L 36.12 211.94 Z " fill="rgb(177,180,196)"/><path d=" M 7.61 221 C 7.78 221.36 2.7 219.28 2.52 219 C 2.34 218.72 8.68 215 8.68 215 L 7.61 221 Z " fill="rgb(177,180,196)"/><path d=" M 49.71 198.55 L 126.23 154.38 C 130.861 151.353 133.776 146.304 134.08 140.78 L 134.08 119.93 C 134.08 114.93 130.56 112.93 126.23 115.39 L 12.38 181.12 C 7.748 184.145 4.833 189.196 4.53 194.72 L 4.53 215.57 C 4.53 220.57 8.05 222.57 12.38 220.1 L 31.49 209.1 L 40.65 213.79 L 49.71 198.55 Z " fill="rgb(233,234,242)"/><path d=" M 123.87 133.53 L 14.74 196.53 L 14.74 189.28 L 123.87 126.27 L 123.87 133.53 L 123.87 133.53 Z " fill="rgb(20,184,166)"/><path d=" M 86.19 167.98 L 14.74 209.23 L 14.74 201.97 L 86.19 160.72 L 86.19 167.98 L 86.19 167.98 Z " fill="rgb(20,184,166)"/></g></g></svg>